<?xml version="1.0" encoding="utf-8"?>
<!-- Generator: Adobe Illustrator 26.3.1, SVG Export Plug-In . SVG Version: 6.00 Build 0)  -->
<svg version="1.1" id="Layer_1" xmlns="http://www.w3.org/2000/svg" xmlns:xlink="http://www.w3.org/1999/xlink" x="0px" y="0px"
	 viewBox="0 0 960 336" style="enable-background:new 0 0 960 336;" xml:space="preserve">
<style type="text/css">
	.st0{fill-rule:evenodd;clip-rule:evenodd;fill:#EC1C24;}
	.st1{fill:#EC1C24;}
	.st2{fill:#00A2B3;}
</style>
<g>
	<path class="st0" d="M680.3,130.4c5.5-0.1,10.8,0.1,16.3,0.1v33.3c12.4,0.1,25.2,0,37.7,0.1v15.7c-12.4,0.2-25.1,0-37.7,0.1
		c0,15.1,0,30.1,0,45.6c0,4.7-0.6,10.9,1.1,14.1c3,5.6,14.3,3,19.6,1.4c6.7-1.9,12.4-4.4,18.3-6.8v17c-6.1,1.8-12.1,3.5-18.8,4.7
		c-6.6,1.2-14.7,1.7-21.1-0.1c-5.8-1.5-11.1-4.8-13.6-9.8c-2.6-5-1.9-13.6-1.9-21.5c0-30.9,0-62.7,0-93.6
		C680.3,130.5,680.2,130.4,680.3,130.4"/>
	<path class="st0" d="M0.4,130.4c33.1,0.1,66.5-0.1,99.5,0.1v10.7c-14.8,0.2-30,0-45,0.1c-0.1,37.8,0.1,75.7-0.1,113.4H44V141.4
		c-14.4-0.2-29.2,0-43.7-0.1c-0.2-3.4,0-7.1,0-10.6C0.2,130.5,0.3,130.5,0.4,130.4"/>
	<path class="st0" d="M427.6,254.7h-16.3v-68.1c0-7.5,0.3-15.1,0-22.7c-0.2-6.3-5.5-10.1-10-12.6c-5.1-2.9-10.7-4.4-17.3-5.3
		c-7.1-1-14.5-0.3-21,0.6c-6.8,0.9-13.3,2-19.2,3.5v104.7h-16.4V135.4c15.2-1.8,28.9-4.1,45.1-4.9c15.5-0.7,27.4,2.6,37.3,7.7
		c4.9,2.5,10,5.2,13.3,9.1c3.7,4.3,4.6,9.6,4.6,17.9V254.7z"/>
	<path class="st0" d="M746.4,130.4h15.7v37.8c10.7-2.5,22-6.3,34.9-4.7c5.7,0.7,10.7,2.4,15.4,4.8c6.7,3.3,12.5,7.9,14.1,16.2
		c0.6,2.8,0.4,6,0.4,9.6v60.5h-16.5v-59.2c0-2.9,0.4-7-0.6-9c-1.6-3.1-6.1-5.1-9.9-6.4c-3.9-1.3-9.3-2-14.3-1.7
		c-8.1,0.5-16,3.1-21.5,6.9c-0.7,0.5-2,1.3-2.1,1.9c-0.3,1,0,2.8,0,4.3c0,21.1,0,42.3,0,63.2h-15.8v-124
		C746.3,130.6,746.3,130.4,746.4,130.4"/>
	<path class="st0" d="M110.9,130.5h10V170c9.9-3.4,21.1-7.2,34.6-6.6c6.4,0.3,11.8,1.7,16.9,3.9c7.2,2.9,13.6,7.3,15.6,15.4
		c0.7,2.8,0.6,6.1,0.6,9.8v62.2c-3.4-0.1-7.1,0.1-10.4-0.1v-55.4c0-6,0.8-13.2-1.6-16.7c-6.7-10-31.3-9.7-44.3-5.2
		c-3,1.1-6.4,2.6-9.1,4.6c-0.7,0.5-2.2,1.6-2.4,2.2c-0.3,1,0,3,0,4.5c0,22,0,44.3-0.1,66.1h-10v-124
		C110.8,130.7,110.8,130.5,110.9,130.5"/>
	<path class="st0" d="M600.1,172.1c8.2-5.7,18.7-9.6,32.6-8.8c12.6,0.7,22.4,5.6,28.2,13.4c3.2,4.2,5.2,9.2,5.2,15.7
		c0,20.3,0,41.9,0,62.3H650c-0.1-19.8-0.1-40.8-0.1-60.8c0-4-0.8-6.8-3-9.2c-3.5-3.8-9.8-7-17.6-6.7c-7.1,0.3-15.2,1.6-18.7,5.7
		c-2,2.5-2.1,5.2-2.1,10.1v60.8c-5.4,0.2-11.1,0.1-16.7,0.1v-58c0-3.9,0.5-8.8-1.1-11c-1.6-2.3-4.7-3.8-7.6-5
		c-3-1.2-6.4-2.2-10.1-2.4c-7.6-0.4-15.2,2.4-21,3.9v72.4h-16.6v-85.5c11.7-1.5,22-5.5,34.7-6.1C583,162.6,592.6,167,600.1,172.1"/>
	<path class="st0" d="M297.1,163.7h10.8v91H297v-90.8C297,163.8,297,163.7,297.1,163.7"/>
	<path class="st0" d="M843.6,163.8h16.5v90.9h-16.6V164C843.5,163.9,843.5,163.8,843.6,163.8"/>
	<path class="st1" d="M959.4,198.8c-2.2-15.9-9-25.9-21.5-31.5c-6.1-2.7-13.9-4.4-22.6-4c-14,0.6-23.7,5.1-38.9,4.5v117.9
		c5.6,0.2,11.6,0,17.4,0.1V250c5.9,3.3,11.9,5.8,19.7,6.8c8.7,1.2,16.3-0.6,22.2-3.6c11.2-5.5,19.5-17.1,22.8-30.3
		C960.2,215.6,960.4,206.5,959.4,198.8 M940.7,224.6c-3.3,8-9.9,16-20.3,16.8c-8.9,0.7-16.5-2.1-21.8-5.7c-0.9-0.6-1.7-1.2-2.6-2.1
		c-0.7-0.6-2-1.7-2.2-2.5c-0.4-1.6,0-3.8,0-5.7v-39.6c6.6-2.1,13.4-4.4,21.5-4.8c12.5-0.6,20.8,4.7,24.8,12.5
		C944.2,201.5,944.5,215.5,940.7,224.6"/>
	<path class="st1" d="M279.9,187.1c-0.7-8.9-6-16.1-12.2-19.5c-3.4-1.8-7.5-2.9-12.2-3.6c-4.6-0.7-9.7-1.1-14.9-0.8
		c-11.9,0.5-22.4,2.7-33,4.8v13c12.5-3.2,25.5-9,41.9-7.3c7.4,0.8,13.8,2.9,17.3,7.7c1.8,2.5,2.4,5.7,2.3,9.9
		c-0.1,4,0.2,8.3-0.1,12.4c-7.5-1.1-15.6-2.4-23.7-2.8c-8.8-0.4-16.9,0.4-23.6,2.8c-12.8,4.5-22.6,14-20,32.3
		c1.1,7.7,4.3,13.4,9.8,16.7c5.4,3.3,13.6,3.9,22.2,4.4c17.6,0.8,33.9-1.8,46.2-6.9v-47.4C280,197.5,280.3,192.2,279.9,187.1
		 M269.3,243.6c-3.4,1.8-7.8,2.3-12.3,2.8c-4.5,0.6-9.3,0.9-14.1,0.9c-9.7,0-20-0.1-25.8-4.2c-3-2.1-4.7-5.7-5-10.1
		c-0.3-5.1,0.8-8.7,3.3-11.7c4.4-5.1,13.1-7.9,22-8.3c12.3-0.6,22.5,1.7,31.7,4.4V243.6z"/>
	<path class="st1" d="M521.1,186.2c-0.7-4.4-2.5-8-4.8-11c-4.7-6.4-11.2-9.7-20.8-11c-4.7-0.6-9.9-1-15.2-0.8
		c-12.7,0.6-23.6,2.8-34.9,4.9v18.4c5.8-1.4,11.5-3.4,17.6-4.9c6-1.5,12.4-3,19.5-3c7.7,0,14.2,0.8,18.6,3.9
		c2.4,1.6,3.9,3.8,4.1,7.1c0.2,3.3-0.1,7.1-0.1,11.1c-7.8-1-16.4-2.2-24.7-2.2c-8.8,0-16.4,1.3-22.8,4.1
		c-6.1,2.6-11.5,6.6-14.8,12.1c-3.4,5.5-4.7,14.1-2.7,22.5c1.7,7.1,5.7,12.4,11.6,15.3c5.9,2.9,14.3,3.6,23,3.9
		c18.1,0.6,34-2.3,46.7-7.2c0-15.9,0-31.8,0-47.7C521.5,196.4,522,191,521.1,186.2 M505.3,238.9c-7.3,1.9-15.6,2.3-24.5,2.6
		c-4.3,0.2-8.7-0.1-12.8-0.7c-4.8-0.6-9.3-2-11.1-5.3c-1.9-3.5-1.7-9.2,0-12.1c3.2-5.6,12.4-8.2,20.6-8.6
		c10.7-0.5,19.6,1.2,27.9,3.4V238.9z"/>
	<path class="st2" d="M903.3,50.1c0,0-16.1,24.7-44.3,33.5c0,0-18.3,4.8-26.6,15.1c-9.2,11.1-12.2,31.5,4.7,42.6
		c16.2,10.7,37.4,0,43.1-15.9c0,0,3-6.6,3.9-28.2C885,75.9,901.4,52.2,903.3,50.1"/>
</g>
</svg>
